<!-- by TradingView --><svg width="56" height="56" viewBox="0 0 56 56" xmlns="http://www.w3.org/2000/svg"><path fill="url(#a)" d="M0 0h56v56H0z"/><path d="M39 24h-2v9h2v-9ZM12.86 28.24a2.18 2.18 0 0 0 1.37-2.03c0-1.3-1.14-2.21-2.61-2.21H6v9h5.75c2.07 0 2.8-1.41 2.8-2.45 0-1.14-.7-1.98-1.69-2.31ZM8 25.6h2.9c.67 0 1.07.43 1.07.96s-.4.96-1.07.96H8v-1.92Zm4.26 4.66c0 .63-.44 1.14-1.25 1.14H8v-2.28h3.01c.75 0 1.25.5 1.25 1.14ZM27.84 33l-1.26-2h6.12c.2 0 .4-.07.56-.21a.75.75 0 0 0 .26-.55c0-.2-.1-.4-.26-.54a.86.86 0 0 0-.56-.23h-3.68a2.77 2.77 0 0 1-2.56-1.68 2.66 2.66 0 0 1 .61-2.97 2.84 2.84 0 0 1 2-.82h5.67l-1.26 2h-4.35c-.2 0-.41.06-.57.2a.7.7 0 0 0-.26.53c0 .42.4.8.83.8h3.57c2.12 0 2.87 1.4 2.87 2.71 0 1.1-.5 1.75-.91 2.1-.5.41-1.15.66-1.77.66h-5.05ZM21.89 25.76l-1.3-2.05L14.75 33h2.58l4.57-7.24ZM23.87 33h2.58l-4-6.34-1.29 2.04 2.7 4.3Z" fill="#fff"/><path d="m22.93 20-1.75 3h2.59l1.75-3h-2.59Z" fill="#0196F0"/><path d="M42.27 33 41 31h6.12c.2 0 .41-.07.57-.21a.75.75 0 0 0 .26-.55c0-.2-.1-.4-.26-.54a.86.86 0 0 0-.57-.23h-3.68a2.76 2.76 0 0 1-2.56-1.68 2.66 2.66 0 0 1 .62-2.97 2.84 2.84 0 0 1 2-.82h5.67l-1.27 2h-4.35c-.2 0-.4.06-.56.2a.7.7 0 0 0-.26.53c0 .42.4.8.82.8h3.57c2.12 0 2.88 1.4 2.88 2.71 0 1.1-.5 1.75-.92 2.1-.49.41-1.15.66-1.77.66h-5.04Z" fill="#fff"/><defs><linearGradient id="a" x1="28" y1="0" x2="28" y2="56" gradientUnits="userSpaceOnUse"><stop stop-color="#0C10D3"/><stop offset="1" stop-color="#110895"/></linearGradient></defs></svg>