<!-- by TradingView --><svg width="56" height="56" viewBox="0 0 56 56" xmlns="http://www.w3.org/2000/svg"><path fill="#F0F3FA" d="M0 0h56v56H0z"/><path d="M15 23h1.5v9H15v-9ZM26.5 27.59c.47-.7 1.16-1.59 1.6-1.59h.9v1.47h-1.21c-.26.06-.82.32-1.29.92V32H25v-6h1.5v1.59ZM20.5 26c1.93 0 3.5 1.34 3.5 3s-1.57 3-3.5 3-3.5-1.34-3.5-3 1.57-3 3.5-3Zm0 1.2c-1.14 0-2 .8-2 1.8s.86 1.8 2 1.8c1.14 0 2-.8 2-1.8s-.86-1.8-2-1.8ZM37 32h-1.5v-1.33c-.58.7-1.39 1.33-2.28 1.33-1.78 0-3.22-1.34-3.22-3s1.44-3 3.22-3c.9 0 1.7.63 2.28 1.33V26H37v6Zm-3.7-4.6c-1.22 0-2.03.72-2.03 1.6 0 .88.81 1.6 2.03 1.6 1.2 0 2.19-1.28 2.2-1.6-.01-.33-1-1.6-2.2-1.6ZM42.7 23h-2.63l4.3 3.71L38 32h2.24L46 26.26 42.7 23ZM48.5 32h2.46l-4.45-4.39L52 23h-2.09L45 28.06 48.5 32ZM9 27.5h5V29H9v-1.5Z" fill="#3200F0"/><path d="M9.08 23.08c2.36 0 4.35 1.41 4.92 3.32h-1.8c-.52-1-1.72-1.7-3.12-1.7-1.88 0-3.58 1.32-3.58 2.89s1.7 2.79 3.58 2.79c1.37 0 3.8-.67 4.92-1.64v1.98A9.74 9.74 0 0 1 9.08 32C6.28 32 4 30 4 27.54s2.28-4.46 5.08-4.46Z" fill="#3200F0"/></svg>