<!-- by TradingView --><svg width="56" height="56" viewBox="0 0 56 56" xmlns="http://www.w3.org/2000/svg"><path fill="#0070C2" d="M0 0h56v56H0z"/><path d="m43.07 35.95-.45.63c1.26-5.11-1.02-5.84-1.07-9.07v-.8a13.38 13.38 0 0 0-3.9-8.27 13.54 13.54 0 0 0-19.24 0A13.56 13.56 0 0 0 28 41.62c2.68 0 5.3-.78 7.55-2.26 3.8-2.5 4.64-8.73-.74-10.15l-.29-3.35c2.78-1.2 1.92-4.71-.57-4.64l-.29-3.07c5.11.8 6.58 6.06 3.59 9.13 4.26 1.93 6.23 8.5 1.8 13.33A15.48 15.48 0 0 1 27.98 45a16.92 16.92 0 0 1-12-4.96 17 17 0 1 1 27.1-4.09ZM25.62 27.9l1.8 11.1h1.55l1.8-11.1.74 11.1h2.55l-1.42-21h-2.6l-1.86 12.22L26.35 18H23.7l-1.36 21h2.54l.74-11.1Zm-3.52-5.27.8-4.48c-6.8 3.34-9.47 13.77-1.87 20.47l.68-4.26c-2.96-1.76-3.9-8.21.4-11.73Z" fill="#fff"/></svg>